<svg width="400" height="400" viewBox="0 0 400 400" fill="none" xmlns="http://www.w3.org/2000/svg">
<circle cx="200" cy="200" r="200" fill="#0085EA"/>
<rect x="171.246" y="200" width="24.8634" height="95.1007" rx="12.4317" transform="rotate(45 171.246 200)" fill="white"/>
<path d="M206.08 229.8C196.12 229.8 187.54 227.94 180.34 224.22C173.14 220.5 167.56 215.22 163.6 208.38C159.76 201.54 157.84 193.44 157.84 184.08C157.84 174.96 159.7 166.98 163.42 160.14C167.26 153.3 172.48 147.96 179.08 144.12C185.8 140.16 193.42 138.18 201.94 138.18C208.18 138.18 213.76 139.2 218.68 141.24C223.72 143.28 227.98 146.22 231.46 150.06C235.06 153.9 237.76 158.58 239.56 164.1C241.48 169.5 242.44 175.62 242.44 182.46C242.44 184.62 241.66 186.3 240.1 187.5C238.66 188.58 236.56 189.12 233.8 189.12H176.02V176.16H226.6L223.72 178.86C223.72 173.34 222.88 168.72 221.2 165C219.64 161.28 217.3 158.46 214.18 156.54C211.18 154.5 207.4 153.48 202.84 153.48C197.8 153.48 193.48 154.68 189.88 157.08C186.4 159.36 183.7 162.66 181.78 166.98C179.98 171.18 179.08 176.22 179.08 182.1V183.36C179.08 193.2 181.36 200.58 185.92 205.5C190.6 210.3 197.44 212.7 206.44 212.7C209.56 212.7 213.04 212.34 216.88 211.62C220.84 210.78 224.56 209.4 228.04 207.48C230.56 206.04 232.78 205.44 234.7 205.68C236.62 205.8 238.12 206.46 239.2 207.66C240.4 208.86 241.12 210.36 241.36 212.16C241.6 213.84 241.24 215.58 240.28 217.38C239.44 219.18 237.94 220.74 235.78 222.06C231.58 224.7 226.72 226.68 221.2 228C215.8 229.2 210.76 229.8 206.08 229.8Z" fill="white"/>
</svg>
