<svg width="448" height="131" viewBox="0 0 448 131" fill="none" xmlns="http://www.w3.org/2000/svg">
<path d="M6.48 115.144C5.072 115.272 3.92 115.048 3.024 114.472C2.128 113.96 1.52 113.288 1.2 112.456C0.816 111.624 0.688 110.76 0.816 109.864C0.944 108.968 1.328 108.168 1.968 107.464C2.544 106.824 3.344 106.472 4.368 106.408C7.248 106.152 9.328 105.32 10.608 103.912C11.952 102.568 12.624 100.488 12.624 97.672V55.336C12.624 53.352 13.136 51.848 14.16 50.824C15.248 49.8 16.752 49.288 18.672 49.288C20.592 49.288 22.064 49.8 23.088 50.824C24.112 51.848 24.624 53.352 24.624 55.336V96.616C24.624 100.712 23.952 104.072 22.608 106.696C21.328 109.32 19.344 111.304 16.656 112.648C14.032 113.992 10.64 114.824 6.48 115.144ZM18.576 40.456C16.336 40.456 14.576 39.912 13.296 38.824C12.08 37.672 11.472 36.104 11.472 34.12C11.472 32.072 12.08 30.504 13.296 29.416C14.576 28.328 16.336 27.784 18.576 27.784C20.88 27.784 22.64 28.328 23.856 29.416C25.072 30.504 25.68 32.072 25.68 34.12C25.68 36.104 25.072 37.672 23.856 38.824C22.64 39.912 20.88 40.456 18.576 40.456ZM58.4918 97.96C53.6278 97.96 49.4038 96.968 45.8198 94.984C42.2358 93 39.4518 90.184 37.4678 86.536C35.4838 82.824 34.4918 78.472 34.4918 73.48C34.4918 69.704 35.0358 66.344 36.1238 63.4C37.2758 60.392 38.9078 57.832 41.0198 55.72C43.1318 53.544 45.6598 51.912 48.6038 50.824C51.5478 49.672 54.8438 49.096 58.4918 49.096C63.3558 49.096 67.5798 50.088 71.1638 52.072C74.7478 54.056 77.5318 56.872 79.5158 60.52C81.4998 64.168 82.4918 68.488 82.4918 73.48C82.4918 77.256 81.9158 80.648 80.7638 83.656C79.6758 86.664 78.0758 89.256 75.9638 91.432C73.8518 93.544 71.3238 95.176 68.3798 96.328C65.4358 97.416 62.1398 97.96 58.4918 97.96ZM58.4918 88.84C60.8598 88.84 62.9398 88.264 64.7318 87.112C66.5238 85.96 67.8998 84.264 68.8598 82.024C69.8838 79.72 70.3958 76.872 70.3958 73.48C70.3958 68.36 69.3078 64.552 67.1318 62.056C64.9558 59.496 62.0758 58.216 58.4918 58.216C56.1238 58.216 54.0438 58.792 52.2518 59.944C50.4598 61.032 49.0518 62.728 48.0278 65.032C47.0678 67.272 46.5878 70.088 46.5878 73.48C46.5878 78.536 47.6758 82.376 49.8518 85C52.0278 87.56 54.9078 88.84 58.4918 88.84ZM119.468 97.96C115.5 97.96 112.012 96.968 109.004 94.984C106.06 93 104.108 90.344 103.148 87.016L104.204 84.616V91.624C104.204 93.608 103.692 95.144 102.668 96.232C101.644 97.256 100.204 97.768 98.3483 97.768C96.4283 97.768 94.9563 97.256 93.9323 96.232C92.9083 95.144 92.3963 93.608 92.3963 91.624V34.6C92.3963 32.616 92.9083 31.112 93.9323 30.088C94.9563 29.064 96.4283 28.552 98.3483 28.552C100.268 28.552 101.74 29.064 102.764 30.088C103.852 31.112 104.396 32.616 104.396 34.6V59.56H103.244C104.268 56.424 106.252 53.896 109.196 51.976C112.14 50.056 115.564 49.096 119.468 49.096C123.628 49.096 127.244 50.088 130.316 52.072C133.388 54.056 135.788 56.872 137.516 60.52C139.244 64.104 140.108 68.424 140.108 73.48C140.108 78.472 139.244 82.824 137.516 86.536C135.788 90.184 133.356 93 130.22 94.984C127.148 96.968 123.564 97.96 119.468 97.96ZM116.108 88.84C118.476 88.84 120.556 88.264 122.348 87.112C124.14 85.96 125.516 84.264 126.476 82.024C127.5 79.72 128.012 76.872 128.012 73.48C128.012 68.36 126.924 64.552 124.748 62.056C122.572 59.496 119.692 58.216 116.108 58.216C113.74 58.216 111.66 58.792 109.868 59.944C108.076 61.032 106.668 62.728 105.644 65.032C104.684 67.272 104.204 70.088 104.204 73.48C104.204 78.536 105.292 82.376 107.468 85C109.644 87.56 112.524 88.84 116.108 88.84ZM155.911 97.768C153.991 97.768 152.519 97.256 151.495 96.232C150.471 95.144 149.959 93.608 149.959 91.624V55.336C149.959 53.352 150.471 51.848 151.495 50.824C152.519 49.8 153.959 49.288 155.815 49.288C157.671 49.288 159.111 49.8 160.135 50.824C161.159 51.848 161.671 53.352 161.671 55.336V61.864L160.615 59.464C162.023 56.072 164.199 53.512 167.143 51.784C170.151 49.992 173.543 49.096 177.319 49.096C181.095 49.096 184.199 49.8 186.631 51.208C189.063 52.616 190.887 54.76 192.103 57.64C193.319 60.456 193.927 64.04 193.927 68.392V91.624C193.927 93.608 193.415 95.144 192.391 96.232C191.367 97.256 189.895 97.768 187.975 97.768C186.055 97.768 184.551 97.256 183.463 96.232C182.439 95.144 181.927 93.608 181.927 91.624V68.968C181.927 65.32 181.223 62.664 179.815 61C178.471 59.336 176.359 58.504 173.479 58.504C169.959 58.504 167.143 59.624 165.031 61.864C162.983 64.04 161.959 66.952 161.959 70.6V91.624C161.959 95.72 159.943 97.768 155.911 97.768ZM229.251 97.96C223.939 97.96 219.363 96.968 215.523 94.984C211.683 93 208.707 90.184 206.595 86.536C204.547 82.888 203.523 78.568 203.523 73.576C203.523 68.712 204.515 64.456 206.499 60.808C208.547 57.16 211.331 54.312 214.851 52.264C218.435 50.152 222.499 49.096 227.043 49.096C230.371 49.096 233.347 49.64 235.971 50.728C238.659 51.816 240.931 53.384 242.787 55.432C244.707 57.48 246.147 59.976 247.107 62.92C248.131 65.8 248.643 69.064 248.643 72.712C248.643 73.864 248.227 74.76 247.395 75.4C246.627 75.976 245.507 76.264 244.035 76.264H213.219V69.352H240.195L238.659 70.792C238.659 67.848 238.211 65.384 237.315 63.4C236.483 61.416 235.235 59.912 233.571 58.888C231.971 57.8 229.955 57.256 227.523 57.256C224.835 57.256 222.531 57.896 220.611 59.176C218.755 60.392 217.315 62.152 216.291 64.456C215.331 66.696 214.851 69.384 214.851 72.52V73.192C214.851 78.44 216.067 82.376 218.499 85C220.995 87.56 224.643 88.84 229.443 88.84C231.107 88.84 232.963 88.648 235.011 88.264C237.123 87.816 239.107 87.08 240.963 86.056C242.307 85.288 243.491 84.968 244.515 85.096C245.539 85.16 246.339 85.512 246.915 86.152C247.555 86.792 247.939 87.592 248.067 88.552C248.195 89.448 248.003 90.376 247.491 91.336C247.043 92.296 246.243 93.128 245.091 93.832C242.851 95.24 240.259 96.296 237.315 97C234.435 97.64 231.747 97.96 229.251 97.96ZM281.282 97.96C275.97 97.96 271.394 96.968 267.554 94.984C263.714 93 260.738 90.184 258.626 86.536C256.578 82.888 255.554 78.568 255.554 73.576C255.554 68.712 256.546 64.456 258.53 60.808C260.578 57.16 263.362 54.312 266.882 52.264C270.466 50.152 274.53 49.096 279.074 49.096C282.402 49.096 285.378 49.64 288.002 50.728C290.69 51.816 292.962 53.384 294.818 55.432C296.738 57.48 298.178 59.976 299.138 62.92C300.162 65.8 300.674 69.064 300.674 72.712C300.674 73.864 300.258 74.76 299.426 75.4C298.658 75.976 297.538 76.264 296.066 76.264H265.25V69.352H292.226L290.69 70.792C290.69 67.848 290.242 65.384 289.346 63.4C288.514 61.416 287.266 59.912 285.602 58.888C284.002 57.8 281.986 57.256 279.554 57.256C276.866 57.256 274.562 57.896 272.642 59.176C270.786 60.392 269.346 62.152 268.322 64.456C267.362 66.696 266.882 69.384 266.882 72.52V73.192C266.882 78.44 268.098 82.376 270.53 85C273.026 87.56 276.674 88.84 281.474 88.84C283.138 88.84 284.994 88.648 287.042 88.264C289.154 87.816 291.138 87.08 292.994 86.056C294.338 85.288 295.522 84.968 296.546 85.096C297.57 85.16 298.37 85.512 298.946 86.152C299.586 86.792 299.97 87.592 300.098 88.552C300.226 89.448 300.034 90.376 299.522 91.336C299.074 92.296 298.274 93.128 297.122 93.832C294.882 95.24 292.29 96.296 289.346 97C286.466 97.64 283.778 97.96 281.282 97.96ZM328.226 97.96C324.13 97.96 320.514 96.968 317.378 94.984C314.306 93 311.906 90.184 310.178 86.536C308.45 82.824 307.586 78.472 307.586 73.48C307.586 68.424 308.45 64.104 310.178 60.52C311.906 56.872 314.306 54.056 317.378 52.072C320.514 50.088 324.13 49.096 328.226 49.096C332.13 49.096 335.522 50.056 338.402 51.976C341.346 53.896 343.33 56.424 344.354 59.56H343.298V34.6C343.298 32.616 343.81 31.112 344.834 30.088C345.858 29.064 347.33 28.552 349.25 28.552C351.17 28.552 352.642 29.064 353.666 30.088C354.754 31.112 355.298 32.616 355.298 34.6V91.624C355.298 93.608 354.786 95.144 353.762 96.232C352.738 97.256 351.266 97.768 349.346 97.768C347.426 97.768 345.954 97.256 344.93 96.232C343.906 95.144 343.394 93.608 343.394 91.624V84.136L344.45 87.016C343.49 90.344 341.538 93 338.594 94.984C335.65 96.968 332.194 97.96 328.226 97.96ZM331.586 88.84C333.954 88.84 336.034 88.264 337.826 87.112C339.618 85.96 340.994 84.264 341.954 82.024C342.978 79.72 343.49 76.872 343.49 73.48C343.49 68.36 342.402 64.552 340.226 62.056C338.05 59.496 335.17 58.216 331.586 58.216C329.218 58.216 327.138 58.792 325.346 59.944C323.554 61.032 322.146 62.728 321.122 65.032C320.162 67.272 319.682 70.088 319.682 73.48C319.682 78.536 320.77 82.376 322.946 85C325.122 87.56 328.002 88.84 331.586 88.84ZM373.5 97.48C371.324 97.48 369.564 96.808 368.22 95.464C366.94 94.12 366.3 92.392 366.3 90.28C366.3 88.232 366.94 86.568 368.22 85.288C369.564 83.944 371.324 83.272 373.5 83.272C375.74 83.272 377.468 83.944 378.684 85.288C379.964 86.568 380.604 88.232 380.604 90.28C380.604 92.392 379.964 94.12 378.684 95.464C377.468 96.808 375.74 97.48 373.5 97.48ZM397.505 97.672C395.585 97.672 394.113 97.096 393.089 95.944C392.065 94.792 391.553 93.192 391.553 91.144V55.912C391.553 53.8 392.065 52.2 393.089 51.112C394.113 49.96 395.585 49.384 397.505 49.384C399.425 49.384 400.897 49.96 401.921 51.112C403.009 52.2 403.553 53.8 403.553 55.912V91.144C403.553 93.192 403.041 94.792 402.017 95.944C400.993 97.096 399.489 97.672 397.505 97.672ZM397.505 40.456C395.265 40.456 393.505 39.912 392.225 38.824C391.009 37.672 390.401 36.104 390.401 34.12C390.401 32.072 391.009 30.504 392.225 29.416C393.505 28.328 395.265 27.784 397.505 27.784C399.809 27.784 401.569 28.328 402.785 29.416C404.001 30.504 404.609 32.072 404.609 34.12C404.609 36.104 404.001 37.672 402.785 38.824C401.569 39.912 399.809 40.456 397.505 40.456ZM437.525 97.96C433.365 97.96 429.877 97.256 427.061 95.848C424.309 94.44 422.261 92.392 420.917 89.704C419.573 86.952 418.901 83.56 418.901 79.528V59.08H413.909C412.373 59.08 411.189 58.696 410.357 57.928C409.525 57.096 409.109 55.976 409.109 54.568C409.109 53.096 409.525 51.976 410.357 51.208C411.189 50.44 412.373 50.056 413.909 50.056H418.901V41.32C418.901 39.336 419.413 37.832 420.437 36.808C421.525 35.784 423.029 35.272 424.949 35.272C426.869 35.272 428.341 35.784 429.365 36.808C430.389 37.832 430.901 39.336 430.901 41.32V50.056H441.077C442.613 50.056 443.797 50.44 444.629 51.208C445.461 51.976 445.877 53.096 445.877 54.568C445.877 55.976 445.461 57.096 444.629 57.928C443.797 58.696 442.613 59.08 441.077 59.08H430.901V78.856C430.901 81.928 431.573 84.232 432.917 85.768C434.261 87.304 436.437 88.072 439.445 88.072C440.533 88.072 441.493 87.976 442.325 87.784C443.157 87.592 443.893 87.464 444.533 87.4C445.301 87.336 445.941 87.592 446.453 88.168C446.965 88.68 447.221 89.768 447.221 91.432C447.221 92.712 446.997 93.864 446.549 94.888C446.165 95.848 445.429 96.52 444.341 96.904C443.509 97.16 442.421 97.384 441.077 97.576C439.733 97.832 438.549 97.96 437.525 97.96Z" fill="white"/>
</svg>
